HIERARCHY
ROOT Hips
{
	OFFSET 0.000000 71.427986 0.000000
	CHANNELS 6 Xposition Yposition Zposition Xrotation Yrotation Zrotation
	JOINT Pelvis
	{
		OFFSET 0.000000 0.000000 0.000000
		CHANNELS 3 Xrotation Yrotation Zrotation
		JOINT LeftUpLeg
		{
			OFFSET 6.797100 -2.508499 -1.318700
			CHANNELS 3 Xrotation Yrotation Zrotation
			JOINT LeftLeg
			{
				OFFSET 0.069008 -29.241863 0.690200
				CHANNELS 3 Xrotation Yrotation Zrotation
				JOINT LeftFoot
				{
					OFFSET -0.069008 -29.568123 -0.266800
					CHANNELS 3 Xrotation Yrotation Zrotation
					JOINT LeftToeBase
					{
						OFFSET 3.145500 -8.631000 16.059900
						CHANNELS 3 Xrotation Yrotation Zrotation
						End Site
						{
							OFFSET 0.000000 18.501587 0.000000
						}
					}
				}
			}
			JOINT Left_ShortSleeve
			{
				OFFSET 0.265923 -10.480953 1.153800
				CHANNELS 3 Xrotation Yrotation Zrotation
				End Site
				{
					OFFSET 1.725763 19.823879 0.000000
				}
			}
		}
		JOINT RightUpLeg
		{
			OFFSET -6.797100 -2.508499 -1.318700
			CHANNELS 3 Xrotation Yrotation Zrotation
			JOINT RightLeg
			{
				OFFSET -0.082453 -29.241932 0.688000
				CHANNELS 3 Xrotation Yrotation Zrotation
				JOINT RightFoot
				{
					OFFSET 0.082453 -29.568058 -0.264600
					CHANNELS 3 Xrotation Yrotation Zrotation
					JOINT RightToeBase
					{
						OFFSET -3.115300 -8.682800 16.113400
						CHANNELS 3 Xrotation Yrotation Zrotation
						End Site
						{
							OFFSET 0.000000 18.567114 0.000000
						}
					}
				}
			}
			JOINT Right_ShortSleeve
			{
				OFFSET -0.265923 -10.480953 1.153800
				CHANNELS 3 Xrotation Yrotation Zrotation
				End Site
				{
					OFFSET -1.725766 19.823910 0.000000
				}
			}
		}
	}
	JOINT Spine
	{
		OFFSET 0.000000 13.368103 0.470500
		CHANNELS 3 Xrotation Yrotation Zrotation
		JOINT Spine1
		{
			OFFSET 0.147000 13.837402 0.538800
			CHANNELS 3 Xrotation Yrotation Zrotation
			JOINT Spine2
			{
				OFFSET 0.168000 16.242897 -1.435500
				CHANNELS 3 Xrotation Yrotation Zrotation
				JOINT Neck
				{
					OFFSET 0.217200 18.631500 -1.679100
					CHANNELS 3 Xrotation Yrotation Zrotation
					JOINT Head
					{
						OFFSET 0.000000 6.599396 1.385900
						CHANNELS 3 Xrotation Yrotation Zrotation
						JOINT Hat
						{
							OFFSET -0.532200 27.220596 -10.096100
							CHANNELS 3 Xrotation Yrotation Zrotation
							End Site
							{
								OFFSET 0.000000 22.029861 0.000000
							}
						}
						JOINT HairD
						{
							OFFSET -10.777400 17.437393 -1.325900
							CHANNELS 3 Xrotation Yrotation Zrotation
							JOINT HairD1
							{
								OFFSET -3.290299 -11.051193 1.062200
								CHANNELS 3 Xrotation Yrotation Zrotation
								End Site
								{
									OFFSET 0.000000 11.579437 0.000000
								}
							}
						}
						JOINT HairB
						{
							OFFSET -10.777400 17.437393 1.467900
							CHANNELS 3 Xrotation Yrotation Zrotation
							JOINT HairB1
							{
								OFFSET -1.561200 -12.956299 3.590200
								CHANNELS 3 Xrotation Yrotation Zrotation
								End Site
								{
									OFFSET 0.000000 13.534866 0.000000
								}
							}
						}
						JOINT HairA
						{
							OFFSET 9.713100 17.437393 1.467900
							CHANNELS 3 Xrotation Yrotation Zrotation
							JOINT HairA1
							{
								OFFSET 1.561200 -12.956299 3.590200
								CHANNELS 3 Xrotation Yrotation Zrotation
								End Site
								{
									OFFSET 0.000000 13.534866 0.000000
								}
							}
						}
						JOINT HairC
						{
							OFFSET 9.713100 17.437393 -1.325900
							CHANNELS 3 Xrotation Yrotation Zrotation
							JOINT HairC1
							{
								OFFSET 3.290300 -11.051193 1.062200
								CHANNELS 3 Xrotation Yrotation Zrotation
								End Site
								{
									OFFSET 0.000000 11.579437 0.000000
								}
							}
						}
					}
				}
				JOINT LeftShoulder
				{
					OFFSET 5.101800 15.108002 -2.763700
					CHANNELS 3 Xrotation Yrotation Zrotation
					JOINT LeftArm
					{
						OFFSET 9.825497 2.506317 -1.597400
						CHANNELS 3 Xrotation Yrotation Zrotation
						JOINT LeftForeArm
						{
							OFFSET 21.966244 0.000000 0.000000
							CHANNELS 3 Xrotation Yrotation Zrotation
							JOINT LeftHand
							{
								OFFSET 33.879036 0.000000 0.000000
								CHANNELS 3 Xrotation Yrotation Zrotation
								JOINT LeftHandThumb1
								{
									OFFSET 6.715286 -2.359680 3.363841
									CHANNELS 3 Xrotation Yrotation Zrotation
									JOINT LeftHandThumb2
									{
										OFFSET 2.507072 -1.447464 1.447461
										CHANNELS 3 Xrotation Yrotation Zrotation
										JOINT LeftHandThumb3
										{
											OFFSET 2.898338 -1.673355 1.673357
											CHANNELS 3 Xrotation Yrotation Zrotation
											End Site
											{
												OFFSET -0.295959 3.727692 -0.131651
											}
										}
									}
								}
								JOINT LeftHandIndex1
								{
									OFFSET 14.190811 -0.254547 3.840278
									CHANNELS 3 Xrotation Yrotation Zrotation
									JOINT LeftHandIndex2
									{
										OFFSET 3.551727 0.000000 -0.000000
										CHANNELS 3 Xrotation Yrotation Zrotation
										JOINT LeftHandIndex3
										{
											OFFSET 2.894196 0.000000 0.000000
											CHANNELS 3 Xrotation Yrotation Zrotation
											End Site
											{
												OFFSET -1.000603 2.690872 0.366626
											}
										}
									}
								}
								JOINT LeftHandMiddle1
								{
									OFFSET 13.776489 0.000000 0.000000
									CHANNELS 3 Xrotation Yrotation Zrotation
									JOINT LeftHandMiddle2
									{
										OFFSET 3.438232 0.000000 0.000000
										CHANNELS 3 Xrotation Yrotation Zrotation
										JOINT LeftHandMiddle3
										{
											OFFSET 3.691551 0.000000 0.000000
											CHANNELS 3 Xrotation Yrotation Zrotation
											End Site
											{
												OFFSET -1.082298 3.499527 0.457670
											}
										}
									}
								}
								JOINT LeftHandRing1
								{
									OFFSET 13.966164 -0.268127 -3.067488
									CHANNELS 3 Xrotation Yrotation Zrotation
									JOINT LeftHandRing2
									{
										OFFSET 3.162567 0.000000 0.000000
										CHANNELS 3 Xrotation Yrotation Zrotation
										JOINT LeftHandRing3
										{
											OFFSET 3.324348 0.000000 0.000000
											CHANNELS 3 Xrotation Yrotation Zrotation
											End Site
											{
												OFFSET -0.861900 3.184998 0.405154
											}
										}
									}
								}
								JOINT LeftHandPinky1
								{
									OFFSET 13.131393 -0.168503 -5.746925
									CHANNELS 3 Xrotation Yrotation Zrotation
									JOINT LeftHandPinky2
									{
										OFFSET 2.849182 0.000000 0.000000
										CHANNELS 3 Xrotation Yrotation Zrotation
										JOINT LeftHandPinky3
										{
											OFFSET 2.805038 0.000000 0.000000
											CHANNELS 3 Xrotation Yrotation Zrotation
											End Site
											{
												OFFSET -0.882500 2.642609 0.325652
											}
										}
									}
								}
							}
							JOINT Left_Sleeve
							{
								OFFSET 6.592125 -0.646545 0.805568
								CHANNELS 3 Xrotation Yrotation Zrotation
								End Site
								{
									OFFSET -0.000179 20.275787 -0.000000
								}
							}
						}
					}
				}
				JOINT RightShoulder
				{
					OFFSET -5.731700 15.108002 -2.763700
					CHANNELS 3 Xrotation Yrotation Zrotation
					JOINT RightArm
					{
						OFFSET -9.825497 2.506317 -1.597400
						CHANNELS 3 Xrotation Yrotation Zrotation
						JOINT RightForeArm
						{
							OFFSET -21.966242 0.000000 0.000000
							CHANNELS 3 Xrotation Yrotation Zrotation
							JOINT RightHand
							{
								OFFSET -33.879032 0.000000 0.000000
								CHANNELS 3 Xrotation Yrotation Zrotation
								JOINT RightHandThumb1
								{
									OFFSET -6.715286 -2.359680 3.363841
									CHANNELS 3 Xrotation Yrotation Zrotation
									JOINT RightHandThumb2
									{
										OFFSET -2.507072 -1.447464 1.447461
										CHANNELS 3 Xrotation Yrotation Zrotation
										JOINT RightHandThumb3
										{
											OFFSET -2.898338 -1.673355 1.673357
											CHANNELS 3 Xrotation Yrotation Zrotation
											End Site
											{
												OFFSET 0.295959 3.727692 -0.131651
											}
										}
									}
								}
								JOINT RightHandIndex1
								{
									OFFSET -14.190811 -0.254547 3.840278
									CHANNELS 3 Xrotation Yrotation Zrotation
									JOINT RightHandIndex2
									{
										OFFSET -3.551727 0.000000 -0.000000
										CHANNELS 3 Xrotation Yrotation Zrotation
										JOINT RightHandIndex3
										{
											OFFSET -2.894196 0.000000 0.000000
											CHANNELS 3 Xrotation Yrotation Zrotation
											End Site
											{
												OFFSET 1.000603 2.690872 0.366626
											}
										}
									}
								}
								JOINT RightHandMiddle1
								{
									OFFSET -13.776489 0.000000 0.000000
									CHANNELS 3 Xrotation Yrotation Zrotation
									JOINT RightHandMiddle2
									{
										OFFSET -3.438232 0.000000 0.000000
										CHANNELS 3 Xrotation Yrotation Zrotation
										JOINT RightHandMiddle3
										{
											OFFSET -3.691551 0.000000 0.000000
											CHANNELS 3 Xrotation Yrotation Zrotation
											End Site
											{
												OFFSET 1.082298 3.499527 0.457670
											}
										}
									}
								}
								JOINT RightHandRing1
								{
									OFFSET -13.966164 -0.268127 -3.067488
									CHANNELS 3 Xrotation Yrotation Zrotation
									JOINT RightHandRing2
									{
										OFFSET -3.162567 0.000000 0.000000
										CHANNELS 3 Xrotation Yrotation Zrotation
										JOINT RightHandRing3
										{
											OFFSET -3.324348 0.000000 0.000000
											CHANNELS 3 Xrotation Yrotation Zrotation
											End Site
											{
												OFFSET 0.861900 3.184998 0.405154
											}
										}
									}
								}
								JOINT RightHandPinky1
								{
									OFFSET -13.131393 -0.168503 -5.746925
									CHANNELS 3 Xrotation Yrotation Zrotation
									JOINT RightHandPinky2
									{
										OFFSET -2.849182 0.000000 0.000000
										CHANNELS 3 Xrotation Yrotation Zrotation
										JOINT RightHandPinky3
										{
											OFFSET -2.805038 0.000000 0.000000
											CHANNELS 3 Xrotation Yrotation Zrotation
											End Site
											{
												OFFSET 0.882500 2.642609 0.325652
											}
										}
									}
								}
							}
							JOINT Right_Sleeve
							{
								OFFSET -6.592125 -0.646545 0.805568
								CHANNELS 3 Xrotation Yrotation Zrotation
								End Site
								{
									OFFSET 0.000179 20.275787 -0.000000
								}
							}
						}
					}
				}
				JOINT Bind_Right_JacketString
				{
					OFFSET -3.534800 11.969597 7.200700
					CHANNELS 3 Xrotation Yrotation Zrotation
					JOINT Bind_Right_JacketString1
					{
						OFFSET -0.319900 -6.102600 2.794100
						CHANNELS 3 Xrotation Yrotation Zrotation
						End Site
						{
							OFFSET 0.000000 6.719452 0.000000
						}
					}
				}
				JOINT Bind_Left_JacketString
				{
					OFFSET 2.904800 11.969597 7.200700
					CHANNELS 3 Xrotation Yrotation Zrotation
					JOINT Bind_Left_JacketString1
					{
						OFFSET 0.364800 -5.904503 3.186800
						CHANNELS 3 Xrotation Yrotation Zrotation
						End Site
						{
							OFFSET 0.000000 6.719513 0.000000
						}
					}
				}
				JOINT HairE
				{
					OFFSET 5.915200 17.612701 -11.592200
					CHANNELS 3 Xrotation Yrotation Zrotation
					JOINT HairE1
					{
						OFFSET 0.289200 -7.171898 -1.284500
						CHANNELS 3 Xrotation Yrotation Zrotation
						End Site
						{
							OFFSET 0.000000 7.291756 0.000000
						}
					}
				}
				JOINT HairF
				{
					OFFSET -0.864800 17.612701 -11.592200
					CHANNELS 3 Xrotation Yrotation Zrotation
					JOINT HairF1
					{
						OFFSET 0.000000 -14.087097 -2.127501
						CHANNELS 3 Xrotation Yrotation Zrotation
						End Site
						{
							OFFSET 0.000000 14.246841 0.000000
						}
					}
				}
				JOINT HairG
				{
					OFFSET -8.087700 17.612701 -11.592200
					CHANNELS 3 Xrotation Yrotation Zrotation
					JOINT HairG1
					{
						OFFSET -0.293600 -6.081398 -0.910100
						CHANNELS 3 Xrotation Yrotation Zrotation
						End Site
						{
							OFFSET 0.000000 6.156120 0.000000
						}
					}
				}
			}
		}
	}
	JOINT Pouch
	{
		OFFSET 0.000000 4.394501 10.847300
		CHANNELS 3 Xrotation Yrotation Zrotation
		End Site
		{
			OFFSET 0.000000 21.880577 0.000000
		}
	}
	JOINT Bag
	{
		OFFSET -13.229000 4.813004 -0.593300
		CHANNELS 3 Xrotation Yrotation Zrotation
		End Site
		{
			OFFSET 0.000000 21.880577 0.000000
		}
	}
	JOINT OccupyGuyFacialAnim_Joint
	{
		OFFSET 1.000000 -70.206398 -1.655000
		CHANNELS 3 Xrotation Yrotation Zrotation
		End Site
		{
			OFFSET 0.000000 21.880577 0.000000
		}
	}
}
MOTION
Frames: 4
Frame Time: 0.033333
2.760982 69.916122 3.459445 -5.454592 -9.345521 -2.293954 0.000000 -0.000000 -0.000000 -6.774030 13.848828 4.277123 26.216476 2.116644 2.152722 -15.029188 -5.771918 -2.575942 0.000000 0.000000 0.000000 0.000000 -0.000000 -0.000001 3.006280 11.833948 -0.124358 19.494094 -4.905845 3.279295 -17.160104 -4.166715 0.305259 0.000000 0.000000 -0.000000 0.000000 0.000000 -0.000000 7.586540 1.770068 -0.273260 1.305640 2.033049 1.877264 1.290289 2.118694 1.801320 4.919824 -2.227552 3.425718 0.987879 -1.042260 -3.209658 0.000000 -0.000000 0.000000 0.000000 -0.000000 0.000000 0.000000 -0.000000 0.000000 0.000000 -0.000000 -0.000000 0.000000 -0.000000 -0.000000 0.000000 -0.000000 -0.000000 0.000000 -0.000000 -0.000000 0.000000 -0.000000 0.000000 0.000000 -0.000000 0.000000 0.666852 -6.379353 -7.200005 -5.906134 0.024159 -37.857232 82.145012 -30.262731 86.446228 -23.784991 -4.416552 20.710571 17.960549 -4.773171 -13.662170 11.741394 26.644505 9.010594 -0.000000 -0.000000 0.000000 14.407212 0.734770 -56.929938 0.436552 1.304843 -67.525613 0.000001 0.000000 -0.000002 7.639809 0.898839 -65.862442 2.010782 1.571222 -66.275545 0.000001 0.000001 0.000003 8.607858 1.761027 -77.779578 -0.226998 0.732095 -58.970870 -0.000002 0.000000 -0.000003 10.616727 13.282752 -87.338503 0.627911 -0.000596 -65.944787 -0.000001 0.000001 0.000001 0.000001 0.000000 0.000000 2.689473 17.349235 11.200850 -22.734734 35.263170 44.353599 -18.683047 64.247430 -1.111766 -12.799248 -8.143147 -8.301292 14.831472 -1.041368 -17.537735 -2.571106 -29.963780 6.948137 -0.000000 0.000000 0.000001 -5.606089 -10.497844 23.158660 4.001979 0.620996 67.003445 0.000001 0.000000 0.000000 -0.350955 0.065684 40.962642 0.199624 -3.736245 66.967150 0.000001 -0.000003 0.000001 -4.588347 -0.818755 42.914441 2.467623 -1.835650 51.796398 -0.000000 -0.000001 -0.000001 -14.385963 -5.293284 37.214077 9.648454 -0.823709 57.388670 -0.000000 0.000001 -0.000001 0.000001 -0.000000 -0.000001 0.000000 0.000000 -0.000000 0.000001 0.000000 -0.000000 0.000000 0.000000 -0.000000 0.000000 0.000000 -0.000000 0.000000 0.000000 -0.000000 0.000001 0.000000 -0.000000 0.000000 0.000000 -0.000000 0.000000 0.000000 -0.000000 0.000000 0.000000 -0.000000 0.000001 0.000000 -0.000000 0.000000 -0.000000 -0.000000 0.000000 -0.000000 -0.000000 0.000000 -0.000000 -0.000000 
2.914316 69.854492 3.659771 -5.443134 -9.575336 -2.330021 0.000000 0.000001 0.000000 -6.793458 13.959681 4.157126 26.682265 2.179258 2.189894 -15.493219 -5.656257 -2.483154 -0.000000 0.000000 -0.000000 0.000000 -0.000000 -0.000000 2.986399 11.876367 -0.315057 19.846354 -4.627057 3.332765 -17.499196 -4.209466 0.413494 0.000000 0.000000 -0.000000 0.000000 -0.000000 -0.000000 7.703884 1.760152 -0.183247 1.256702 2.000547 1.891506 1.242574 2.086997 1.814783 4.648883 -2.136986 3.463709 0.991994 -0.910570 -3.411265 -0.000002 0.000000 -0.000000 -0.000002 0.000000 -0.000000 -0.000002 0.000000 -0.000000 -0.000002 0.000000 -0.000000 -0.000002 -0.000000 0.000000 -0.000002 0.000000 -0.000000 -0.000002 -0.000000 0.000000 -0.000002 0.000000 -0.000000 -0.000002 0.000000 -0.000000 0.658792 -6.244002 -7.327208 -6.108955 -0.159782 -38.410576 82.227295 -30.771891 85.812133 -24.582305 -4.806845 20.881283 17.982416 -4.723555 -13.701398 11.789308 26.672351 9.029648 0.000003 -0.000001 -0.000004 14.429685 0.709106 -57.032670 0.438363 1.300666 -67.637000 0.000001 0.000001 -0.000000 7.646700 0.884058 -65.973733 2.009827 1.564822 -66.366640 -0.000000 0.000000 -0.000001 8.609170 1.739189 -77.920150 -0.237014 0.732289 -59.030313 -0.000001 0.000000 0.000001 10.648184 13.263165 -87.476548 0.614453 -0.003725 -66.016811 0.000000 -0.000001 0.000004 0.000002 0.000000 -0.000000 2.753246 16.903176 11.158807 -22.396250 35.472068 43.698212 -14.534738 64.986245 -5.022688 -16.717419 -7.959531 -8.751728 14.674445 0.370326 -17.210569 -3.743663 -29.149396 5.823326 0.000001 0.000000 0.000000 -5.785501 -10.451817 22.965073 4.008155 0.725035 66.761336 0.000001 0.000001 -0.000001 -0.323645 0.062426 40.751811 0.157758 -3.734969 66.781731 0.000001 -0.000001 0.000001 -4.536862 -0.807944 42.739110 2.467223 -1.837116 51.767493 -0.000000 -0.000001 -0.000000 -14.367361 -5.267642 37.060070 9.649843 -0.824779 57.377598 -0.000002 0.000000 0.000002 -0.000001 -0.000001 0.000001 0.000000 -0.000000 -0.000000 0.000001 -0.000000 0.000000 0.000000 -0.000000 -0.000000 0.000000 -0.000000 -0.000000 0.000000 -0.000000 -0.000000 0.000001 -0.000000 0.000000 0.000000 -0.000000 -0.000000 0.000000 -0.000000 -0.000000 0.000000 -0.000000 -0.000000 0.000001 -0.000000 0.000000 0.000000 0.000001 0.000000 0.000000 0.000001 0.000000 0.000000 0.000001 0.000000 
3.081809 69.780121 3.805567 -5.391988 -10.015789 -2.416931 -0.000000 0.000000 0.000000 -6.957022 14.052487 4.115350 27.270490 2.367868 2.149640 -15.983589 -5.467188 -2.368993 0.000000 0.000000 0.000000 0.000000 -0.000000 -0.000000 2.772601 11.751013 -0.559232 20.325917 -4.267839 3.462522 -17.826686 -3.915937 0.532864 0.000000 0.000001 0.000000 0.000000 0.000000 -0.000000 7.896379 1.695913 -0.145990 1.223006 1.891159 1.936276 1.209272 1.982611 1.860885 4.378576 -1.802917 3.495951 0.904317 -0.523350 -3.667529 -0.000001 -0.000000 0.000000 -0.000001 -0.000000 0.000000 -0.000001 -0.000000 0.000000 -0.000001 -0.000000 0.000000 -0.000001 -0.000000 0.000000 -0.000001 -0.000000 0.000000 -0.000001 -0.000000 0.000000 -0.000001 -0.000000 0.000000 -0.000001 -0.000000 0.000000 0.649885 -6.091707 -7.472835 -6.248822 0.003994 -38.892327 82.492723 -31.361295 85.528442 -25.387016 -5.044359 21.042235 18.003977 -4.674707 -13.740123 11.836513 26.699749 9.048409 0.000002 -0.000000 -0.000001 14.451806 0.683634 -57.133976 0.440113 1.296393 -67.746871 -0.000000 0.000001 -0.000002 7.653514 0.869299 -66.083549 2.008784 1.558433 -66.456457 0.000000 0.000001 -0.000001 8.610494 1.717630 -78.058755 -0.246900 0.732572 -59.088923 -0.000001 0.000000 0.000000 10.679142 13.243766 -87.612769 0.601213 -0.006735 -66.087927 -0.000001 0.000001 0.000003 -0.000001 0.000000 0.000000 2.796587 16.587418 11.139715 -22.222000 35.897992 43.079369 -11.518402 65.470061 -7.942696 -20.670558 -7.181431 -9.006357 14.512636 1.833775 -16.874233 -4.947497 -28.257071 4.711001 0.000001 0.000000 0.000004 -5.875907 -10.422112 22.856651 3.996628 0.779423 66.596189 0.000001 -0.000001 0.000000 -0.311551 0.053343 40.618247 0.136856 -3.735182 66.646336 0.000001 0.000000 0.000001 -4.507407 -0.807605 42.623758 2.467321 -1.838164 51.733379 -0.000001 -0.000001 -0.000001 -14.351231 -5.255077 36.962440 9.650641 -0.827214 57.347300 0.000000 0.000001 -0.000001 -0.000002 0.000000 -0.000000 -0.000000 -0.000000 0.000000 -0.000000 0.000000 -0.000000 -0.000000 -0.000000 0.000000 -0.000000 -0.000000 0.000000 -0.000000 -0.000000 0.000000 -0.000000 0.000000 0.000000 -0.000000 -0.000000 0.000000 -0.000000 -0.000000 0.000000 -0.000000 -0.000000 0.000000 -0.000000 0.000000 0.000000 -0.000000 0.000000 0.000000 -0.000000 0.000000 0.000000 -0.000000 0.000000 0.000000 
3.257002 69.699066 3.920365 -5.334095 -10.649147 -2.548867 -0.000000 0.000000 -0.000000 -7.179356 14.133676 4.169130 27.927750 2.598100 1.973802 -16.491014 -5.167778 -2.194929 -0.000000 -0.000000 0.000000 -0.000001 0.000001 -0.000000 2.323082 11.587027 -0.679095 21.058530 -3.538175 3.391430 -18.158874 -3.817508 0.685025 -0.000000 0.000001 -0.000000 0.000000 -0.000000 -0.000001 8.088518 1.606133 -0.146755 1.300773 1.745200 2.028817 1.286523 1.845028 1.957436 4.113183 -1.381870 3.417548 0.769682 -0.072777 -3.895942 -0.000000 0.000001 -0.000000 -0.000000 0.000001 -0.000000 -0.000000 0.000001 -0.000000 -0.000000 0.000001 -0.000000 -0.000001 -0.000000 0.000000 -0.000000 0.000001 -0.000000 -0.000001 -0.000000 0.000000 -0.000000 0.000001 -0.000000 -0.000000 0.000001 -0.000000 0.642094 -5.930607 -7.630704 -6.376304 0.399133 -39.282443 82.874128 -32.085490 85.479367 -26.195293 -5.185289 21.320128 18.025200 -4.626636 -13.778163 11.883010 26.726798 9.066776 0.000000 -0.000001 -0.000002 14.473478 0.658586 -57.233536 0.441848 1.292181 -67.854856 -0.000000 0.000001 -0.000002 7.660096 0.854848 -66.191418 2.007604 1.552075 -66.544682 -0.000000 0.000000 -0.000001 8.611939 1.696474 -78.194970 -0.256683 0.732892 -59.146658 -0.000001 0.000001 -0.000002 10.709574 13.224588 -87.746511 0.588146 -0.009686 -66.157861 0.000001 -0.000001 0.000005 -0.000001 0.000000 -0.000000 2.829345 16.350156 11.118221 -22.103513 36.684082 42.366051 -9.246024 65.888567 -10.244888 -24.281307 -6.099192 -8.795702 14.359271 3.225438 -16.558440 -6.079207 -27.375120 3.700358 -0.000000 -0.000001 0.000002 -5.903062 -10.404792 22.809094 3.968121 0.800498 66.487561 -0.000001 -0.000000 0.000002 -0.308462 0.044235 40.540841 0.130874 -3.734987 66.548247 0.000002 -0.000000 -0.000001 -4.494371 -0.816681 42.552044 2.467643 -1.840070 51.696394 -0.000000 0.000000 0.000001 -14.337038 -5.253574 36.905213 9.651086 -0.833685 57.304802 -0.000001 0.000001 0.000001 -0.000001 0.000000 0.000001 -0.000000 0.000000 -0.000000 -0.000000 0.000000 -0.000000 -0.000000 0.000000 -0.000000 -0.000000 0.000000 -0.000000 -0.000000 0.000000 -0.000000 -0.000000 0.000000 -0.000000 -0.000000 0.000000 -0.000000 -0.000000 0.000000 -0.000000 -0.000000 0.000000 -0.000000 -0.000000 0.000000 -0.000000 -0.000000 0.000000 -0.000000 -0.000000 0.000000 -0.000000 -0.000000 0.000000 -0.000000 
